<svg preserveAspectRatio="none" width="100%" height="100%" overflow="visible" style="display: block;" viewBox="0 0 290.88 432" fill="none" xmlns="http://www.w3.org/2000/svg">
<g id="Group 158">
<g id="Vector">
<path d="M128.77 103.192C138.937 95.7713 152.734 95.7713 162.9 103.192C172.999 110.563 177.188 123.693 173.341 135.589C169.487 147.503 158.357 155.685 145.835 155.685C133.313 155.685 122.183 147.503 118.33 135.589C114.483 123.693 118.672 110.563 128.77 103.192Z" fill="var(--fill-0, #F5EBE2)"/>
<path d="M113.71 187.549C129.566 165.725 162.102 165.725 177.959 187.55L212.126 234.579H181.165C177.987 234.579 175.002 233.057 173.134 230.486L145.834 192.911L118.534 230.487C116.666 233.057 113.681 234.579 110.503 234.579H79.5414L113.71 187.549Z" fill="var(--fill-0, #F5EBE2)"/>
<path d="M56.1395 200.324C55.1576 197.301 55.6817 193.992 57.5495 191.421L92.065 143.914L36.2177 125.768C33.1956 124.786 30.8262 122.416 29.8443 119.394L22.5097 96.8205L77.7952 114.784C103.451 123.12 113.505 154.065 97.649 175.889L63.4808 222.918L56.1395 200.324Z" fill="var(--fill-0, #F5EBE2)"/>
<path d="M47.8781 63.9613C50.4489 62.0936 53.7584 61.5694 56.7805 62.5513L112.616 80.6932V21.984C112.616 18.8062 114.137 15.8206 116.708 13.9528L135.912 0V58.1309C135.912 85.1076 109.59 104.232 83.9338 95.8958L28.6488 77.9322L47.8781 63.9613Z" fill="var(--fill-0, #F5EBE2)"/>
<path d="M207.74 95.8958C182.084 104.232 155.761 85.1075 155.761 58.1308L155.761 0L174.989 13.9702C177.56 15.838 179.081 18.8237 179.081 22.0014L179.081 80.6997L234.906 62.5604C237.928 61.5785 241.238 62.1027 243.809 63.9705L263.025 77.9322L207.74 95.8958Z" fill="var(--fill-0, #F5EBE2)"/>
<path d="M261.825 119.411C260.843 122.433 258.473 124.803 255.451 125.784L199.619 143.925L234.125 191.419C235.993 193.99 236.517 197.299 235.535 200.322L228.194 222.918L194.025 175.889C178.169 154.064 188.223 123.12 213.879 114.784L269.165 96.8205L261.825 119.411Z" fill="var(--fill-0, #F5EBE2)"/>
<path d="M29.0103 301.443C29.0103 291.225 37.3707 286.411 46.9133 286.411C54.8515 286.411 58.5672 288.353 60.1717 288.353C61.7762 288.353 62.5363 286.496 64.3097 286.496H64.9008C66.3365 286.496 67.012 287.34 67.4343 288.691L72.1634 302.034C72.839 303.807 71.9945 304.652 70.4744 304.821L69.461 304.905C68.1099 305.074 67.012 303.976 65.9987 302.625C61.0162 295.869 56.2027 292.069 48.349 292.069C43.2821 292.069 40.2419 294.94 40.2419 299.163C40.2419 310.817 73.6835 310.732 73.6835 329.48C73.6835 340.796 65.4075 347.467 53.8381 347.467C45.1399 347.467 40.8331 343.92 38.553 343.92C37.7085 343.92 37.2018 344.427 36.9484 345.356C36.6106 346.454 36.2729 347.214 35.0061 347.214H32.8105C31.6282 347.214 31.206 346.369 30.7837 345.018L26.4769 328.973C26.0546 327.369 26.8991 326.271 28.2503 326.271H29.7703C31.1215 326.271 31.7971 327.369 32.5571 328.635C37.624 337.502 43.8732 341.387 50.0379 341.387C56.8782 341.387 61.4385 337.587 61.4385 332.52C61.4385 319.008 29.0103 318.839 29.0103 301.443Z" fill="var(--fill-0, #F5EBE2)"/>
<path d="M77.9177 325.595C77.9177 312.59 86.7848 303.047 100.381 303.047C113.893 303.047 122.76 312.59 122.76 325.595C122.76 338.685 113.893 348.143 100.381 348.143C86.7848 348.143 77.9177 338.685 77.9177 325.595ZM88.3893 323.653C88.3893 333.618 93.8785 343.16 101.563 343.16C108.319 343.16 112.373 336.236 112.373 327.453C112.373 317.573 106.884 308.114 99.1987 308.114C92.4429 308.114 88.3893 314.955 88.3893 323.653Z" fill="var(--fill-0, #F5EBE2)"/>
<path d="M127.132 325.595C127.132 312.59 135.661 303.216 147.737 303.216C153.226 303.216 156.436 304.736 157.449 304.736C158.547 304.736 159.307 303.132 160.405 303.132H160.742C161.587 303.132 162.178 303.723 162.516 304.736L165.725 313.857C166.147 315.039 165.809 315.884 165.049 316.137L164.374 316.39C163.107 316.728 161.756 315.884 160.489 314.448C157.027 310.394 152.72 307.692 148.92 307.692C141.235 307.692 137.012 314.87 137.012 322.471C137.012 331.338 141.995 340.374 151.96 340.374C156.182 340.374 160.151 338.854 163.445 336.067C163.783 335.898 164.036 335.644 164.374 335.644C165.387 335.644 166.4 336.658 166.4 337.84C166.4 338.178 166.232 338.685 165.894 339.191C161.925 344.512 155.844 347.805 148.582 347.805C138.279 347.805 127.132 340.711 127.132 325.595Z" fill="var(--fill-0, #F5EBE2)"/>
<path d="M172.198 291.647C172.198 286.918 175.491 283.878 179.545 283.878C183.514 283.878 186.807 286.918 186.807 291.647C186.807 295.869 184.527 298.656 179.545 298.656C174.478 298.656 172.198 295.869 172.198 291.647ZM175.913 332.773V317.91C175.913 312.421 173.802 311.661 170.171 311.323C169.158 311.239 168.398 310.479 168.398 309.128V307.439C168.398 306.341 169.158 305.665 170.255 305.665C173.718 305.665 178.194 304.821 181.487 303.807C181.909 303.639 182.5 303.554 182.923 303.554H183.767C185.118 303.554 186.047 304.483 186.047 305.834V332.773C186.047 339.107 188.243 340.711 191.79 341.049C192.803 341.134 193.648 341.894 193.648 343.245V344.934C193.648 346.116 192.803 346.707 191.705 346.707H170.255C169.158 346.707 168.398 346.116 168.398 344.934V343.245C168.398 341.894 169.158 341.134 170.171 341.049C173.802 340.711 175.913 339.107 175.913 332.773Z" fill="var(--fill-0, #F5EBE2)"/>
<path d="M197.388 335.307C197.388 325.68 205.326 321.373 213.602 321.373C216.389 321.373 219.26 321.879 221.793 323.062C222.215 323.146 222.384 323.062 222.384 322.639V318.079C222.384 311.914 219.851 307.523 213.771 307.523C213.433 307.523 213.095 307.777 213.011 308.114C211.828 312.252 208.366 314.701 205.072 314.701C202.286 314.701 200.09 313.097 200.09 310.057C200.09 306.256 206.001 303.047 215.882 303.047C226.776 303.047 232.518 309.043 232.518 318.839V335.138C232.518 338.6 233.363 340.205 235.052 340.205C236.065 340.205 236.656 339.698 237.247 339.698C238.345 339.698 239.19 340.965 239.19 342.485C239.19 345.609 234.123 347.552 230.914 347.552C227.198 347.552 224.411 345.103 223.398 341.387C223.313 340.965 223.144 340.88 222.976 341.303C220.358 345.356 215.544 347.552 210.646 347.552C203.215 347.552 197.388 342.907 197.388 335.307ZM207.184 334.04C207.184 338.6 210.308 340.796 213.94 340.796C218.5 340.796 222.384 336.32 222.384 331.929V328.044C222.384 327.875 222.3 327.622 222.131 327.622C220.442 326.44 218.246 325.764 216.051 325.764C211.322 325.764 207.184 328.382 207.184 334.04Z" fill="var(--fill-0, #F5EBE2)"/>
<path d="M248.612 332.773V297.221C248.612 290.887 246.5 289.705 242.869 289.367C241.856 289.282 241.096 288.522 241.096 287.171V285.482C241.096 284.384 241.856 283.709 242.953 283.709C245.994 283.709 250.976 282.949 254.185 282.527C254.607 282.442 255.199 282.442 255.621 282.442H256.465C257.816 282.442 258.745 283.371 258.745 284.807V332.773C258.745 339.107 260.941 340.711 264.488 341.049C265.501 341.134 266.346 341.894 266.346 343.245V344.934C266.346 346.116 265.501 346.707 264.403 346.707H242.953C241.856 346.707 241.096 346.116 241.096 344.934V343.245C241.096 341.894 241.856 341.134 242.869 341.049C246.5 340.711 248.612 339.107 248.612 332.773Z" fill="var(--fill-0, #F5EBE2)"/>
<path d="M7.60035 416.799L24.9123 373.224C25.3345 372.126 26.3479 371.451 27.5301 371.451H31.2459C32.4282 371.451 33.4415 372.126 33.8638 373.224L51.7668 416.799C53.7936 421.697 55.6514 424.146 58.776 425.244C59.705 425.582 60.5494 426.173 60.5494 427.524V429.213C60.5494 430.311 59.7894 431.156 58.6916 431.156H36.5661C35.4683 431.156 34.7083 430.311 34.7083 429.213V427.524C34.7083 426.173 35.4683 425.16 36.4817 425.075C39.0151 424.822 40.7041 423.471 40.7041 420.853C40.7041 419.755 40.3663 418.657 39.944 417.475L38.5084 413.59C38.424 413.421 38.2551 413.252 38.0862 413.252H16.8897C16.7208 413.252 16.5519 413.337 16.4674 413.59L14.9474 417.475C14.4407 418.911 14.2718 419.924 14.2718 420.937C14.2718 423.555 15.9607 424.991 18.4942 425.244C19.5076 425.329 20.352 426.173 20.352 427.524V429.213C20.352 430.311 19.5076 431.156 18.4097 431.156H1.94231C0.844483 431.156 0 430.311 0 429.213V427.524C0 426.173 0.844483 425.666 1.85786 425.244C4.22242 424.146 5.74249 421.444 7.60035 416.799ZM19.3387 407.932H35.2994C35.8061 407.932 36.0594 407.594 35.8905 407.088L27.7835 386.145C27.6146 385.722 27.4457 385.469 27.1924 385.469C26.939 385.469 26.7701 385.807 26.6012 386.229L18.7475 407.088C18.5786 407.594 18.832 407.932 19.3387 407.932Z" fill="var(--fill-0, #F5EBE2)"/>
<path d="M68.6195 417.222V402.359C68.6195 396.869 66.5083 396.109 62.877 395.772C61.8637 395.687 61.1036 394.927 61.1036 393.576V391.887C61.1036 390.789 61.8637 390.114 62.9615 390.114C66.4239 390.114 70.8996 389.185 74.1931 388.171C74.6154 388.087 75.2065 388.002 75.6287 388.002H76.4732C77.8244 388.002 78.7533 388.931 78.7533 390.283V395.012C78.7533 395.941 79.1756 396.109 79.8511 395.434C85.9314 389.691 91.0828 387.411 95.3896 387.411C102.737 387.411 107.044 393.323 107.044 401.599V417.222C107.044 423.555 109.239 425.16 112.786 425.497C113.799 425.582 114.644 426.342 114.644 427.693V429.382C114.644 430.564 113.799 431.156 112.702 431.156H92.5184C91.4206 431.156 90.6605 430.564 90.6605 429.382V427.693C90.6605 426.342 91.4206 425.582 92.434 425.497C95.2207 425.16 96.9097 423.555 96.9097 417.222V403.963C96.9097 399.487 95.3896 394.674 90.9983 394.674C88.296 394.674 84.4114 396.616 79.26 401.683C79.0067 401.936 78.7533 402.359 78.7533 402.781V417.222C78.7533 423.555 80.5267 425.16 83.6513 425.497C84.6647 425.582 85.5092 426.342 85.5092 427.693V429.382C85.5092 430.564 84.6647 431.156 83.5669 431.156H62.9615C61.8637 431.156 61.1036 430.564 61.1036 429.382V427.693C61.1036 426.342 61.8637 425.582 62.877 425.497C66.5083 425.16 68.6195 423.555 68.6195 417.222Z" fill="var(--fill-0, #F5EBE2)"/>
<path d="M119.479 376.095C119.479 371.366 122.772 368.326 126.826 368.326C130.795 368.326 134.088 371.366 134.088 376.095C134.088 380.318 131.808 383.104 126.826 383.104C121.759 383.104 119.479 380.318 119.479 376.095ZM123.194 417.222V402.359C123.194 396.869 121.083 396.109 117.452 395.772C116.438 395.687 115.678 394.927 115.678 393.576V391.887C115.678 390.789 116.438 390.114 117.536 390.114C120.999 390.114 125.474 389.269 128.768 388.256C129.19 388.087 129.781 388.002 130.203 388.002H131.048C132.399 388.002 133.328 388.931 133.328 390.283V417.222C133.328 423.555 135.524 425.16 139.071 425.497C140.084 425.582 140.928 426.342 140.928 427.693V429.382C140.928 430.564 140.084 431.156 138.986 431.156H117.536C116.438 431.156 115.678 430.564 115.678 429.382V427.693C115.678 426.342 116.438 425.582 117.452 425.497C121.083 425.16 123.194 423.555 123.194 417.222Z" fill="var(--fill-0, #F5EBE2)"/>
<path d="M149.482 417.222V402.359C149.482 396.869 147.371 396.109 143.74 395.772C142.726 395.687 141.966 394.927 141.966 393.576V391.887C141.966 390.789 142.726 390.114 143.824 390.114C147.286 390.114 151.847 389.185 155.056 388.171C155.562 388.087 156.069 388.002 156.491 388.002H157.336C158.687 388.002 159.616 388.931 159.616 390.283V393.323C159.616 394.252 160.038 394.336 160.714 393.745C165.189 389.269 169.665 387.411 173.465 387.411C178.448 387.411 182.079 390.198 183.853 394.674C184.106 395.434 184.613 395.518 185.119 394.927C190.017 389.607 194.831 387.411 198.969 387.411C206.316 387.411 210.623 393.323 210.623 401.599V417.222C210.623 423.555 212.818 425.16 216.365 425.497C217.379 425.582 218.223 426.342 218.223 427.693V429.382C218.223 430.564 217.379 431.156 216.281 431.156H196.942C195.844 431.156 195.169 430.564 195.169 429.382V427.693C195.169 426.342 195.844 425.835 196.858 425.497C199.222 425.075 200.489 423.555 200.489 417.222V403.963C200.489 399.487 198.969 394.674 194.577 394.674C192.213 394.674 189.342 396.109 185.626 399.825C185.373 400.079 185.119 400.585 185.119 401.007V417.222C185.119 423.555 186.555 425.075 189.088 425.497C190.102 425.666 190.777 426.342 190.777 427.693V429.382C190.777 430.564 190.102 431.156 189.004 431.156H171.608C170.51 431.156 169.75 430.564 169.75 429.382V427.693C169.75 426.342 170.256 425.835 171.27 425.497C173.55 424.991 174.985 423.555 174.985 417.222V403.963C174.985 399.487 173.465 394.674 169.074 394.674C166.71 394.674 163.754 396.109 160.123 399.741C159.869 399.994 159.616 400.501 159.616 400.923V417.222C159.616 423.555 161.136 425.075 163.669 425.497C164.683 425.666 165.358 426.342 165.358 427.693V429.382C165.358 430.564 164.683 431.156 163.585 431.156H143.824C142.726 431.156 141.966 430.564 141.966 429.382V427.693C141.966 426.342 142.726 425.582 143.74 425.497C147.371 425.16 149.482 423.555 149.482 417.222Z" fill="var(--fill-0, #F5EBE2)"/>
<path d="M221.922 419.755C221.922 410.128 229.86 405.821 238.136 405.821C240.923 405.821 243.794 406.328 246.328 407.51C246.75 407.594 246.919 407.51 246.919 407.088V402.528C246.919 396.363 244.385 391.971 238.305 391.971C237.967 391.971 237.63 392.225 237.545 392.563C236.363 396.701 232.9 399.15 229.607 399.15C226.82 399.15 224.625 397.545 224.625 394.505C224.625 390.705 230.536 387.496 240.416 387.496C251.31 387.496 257.053 393.492 257.053 403.288V419.586C257.053 423.048 257.897 424.653 259.586 424.653C260.6 424.653 261.191 424.146 261.782 424.146C262.88 424.146 263.724 425.413 263.724 426.933C263.724 430.058 258.657 432 255.448 432C251.732 432 248.946 429.551 247.932 425.835C247.848 425.413 247.679 425.329 247.51 425.751C244.892 429.804 240.079 432 235.181 432C227.749 432 221.922 427.355 221.922 419.755ZM231.718 418.488C231.718 423.048 234.843 425.244 238.474 425.244C243.034 425.244 246.919 420.768 246.919 416.377V412.492C246.919 412.324 246.834 412.07 246.666 412.07C244.977 410.888 242.781 410.212 240.585 410.212C235.856 410.212 231.718 412.83 231.718 418.488Z" fill="var(--fill-0, #F5EBE2)"/>
<path d="M273.146 417.222V381.669C273.146 375.335 271.035 374.153 267.404 373.815C266.39 373.731 265.63 372.971 265.63 371.619V369.93C265.63 368.833 266.39 368.157 267.488 368.157C270.528 368.157 275.511 367.397 278.72 366.975C279.142 366.89 279.733 366.89 280.155 366.89H281C282.351 366.89 283.28 367.819 283.28 369.255V417.222C283.28 423.555 285.476 425.16 289.022 425.497C290.036 425.582 290.88 426.342 290.88 427.693V429.382C290.88 430.564 290.036 431.156 288.938 431.156H267.488C266.39 431.156 265.63 430.564 265.63 429.382V427.693C265.63 426.342 266.39 425.582 267.404 425.497C271.035 425.16 273.146 423.555 273.146 417.222Z" fill="var(--fill-0, #F5EBE2)"/>
</g>
</g>
</svg>
